<?xml version="1.0" encoding="utf-8"?>
<!-- Generator: Adobe Illustrator 24.1.0, SVG Export Plug-In . SVG Version: 6.00 Build 0)  -->
<svg version="1.1" id="Layer_1" xmlns="http://www.w3.org/2000/svg" xmlns:xlink="http://www.w3.org/1999/xlink" x="0px" y="0px"
	 viewBox="0 0 193 52" style="enable-background:new 0 0 193 52;" xml:space="preserve">
<style type="text/css">
	.st0{enable-background:new    ;}
	.st1{fill:#3C366B;}
	.st2{fill:#FFE922;}
	.st3{fill:#E8AA14;}
</style>
<g class="st0">
	<path class="st1" d="M87.3,24.5c11.2,0.2,13.3,4.9,13.3,10.3c0,9-5.7,14.6-17.4,14.6c-3.8,0-8.4-0.6-12.1-0.6
		c-3.2,0-6.5,0.4-10.6,0.6l0.2-2.1l3.3-0.3c5.5-0.5,5.7-0.8,5.7-15.7c0-12.5-0.2-17.7-0.8-23.6c-0.2-2.6-0.5-3.9-5.3-3.9
		c-0.8,0-2.3,0-3.2,0.2L61,1.5c4,0.2,7.6,0.4,10.4,0.4c6.1,0,11.2-0.7,14.8-0.7c9.8,0,11.9,5.2,11.9,10.3
		C98.1,17.2,95.3,22.5,87.3,24.5L87.3,24.5z M75.3,45.7c1.2,0.8,4,1.1,6.1,1.1c8.1,0,12.2-4.6,12.2-10.9c0-4.9-2.6-9.5-11.6-9.5
		c-1.6,0-3.6,0.2-6.4,0.3C75.6,34.9,75.6,41.1,75.3,45.7z M75.6,23.5c0.8,0.1,1.9,0.1,2.9,0.1c8.2,0,13-1.5,13-10.4
		c0-5.7-2.4-9-10.8-9c-2.1,0-3.4,0.2-4.8,0.8L75.6,23.5z"/>
	<path class="st1" d="M110.8,48.4c-2.2,0.3-3.9,0.8-5.7,1.4c0.9-8.2,2.1-20.2,2.1-26.9c0-5.2-0.6-6.7-2.7-8.1v-0.4
		c3.1-0.8,5.9-2.2,8.8-3.9c-0.8,5.1-1.1,8.9-1.4,14.7h0.1c0,0,4.9-14.4,10.6-14.4c1.1,0,2.1,0.5,2.1,0.5c-1.2,2.1-2.5,4.9-2.8,6.7
		c-0.5-0.2-0.8-0.2-1.2-0.2c-6.4,0-9.7,13.9-9.7,24.9V48.4z"/>
	<path class="st1" d="M143.1,42.8c-1.4,2.1-6.2,6.9-7,6.9c-1.1,0-1.4-2.7-1.4-10.8c0-1.7,0.1-2.7,0.2-4.1
		c-1.9,5.7-8.5,14.9-12.2,14.9c-0.7,0-1-3.3-1-11.6c0-10.6,2.6-18.6,6.9-23.1c2.6-2.7,4.8-4.2,7.1-4.2c2.1,0,4.1,0.5,5.9,1.1
		c-1.5,6.7-2.6,20.1-2.6,27c0,2.7,0.3,4.2,1.2,4.2c0.9,0,2.1-0.3,2.8-0.8V42.8z M132.9,15.9c-2.8,0-3.6,0.5-4.9,6.5
		c-0.9,4.7-1.4,14.3-1.4,17.6c0,2,0.2,3.2,0.7,3.2c1.4,0,6.8-6.2,7.6-15.5c0.5-5.9,0.7-9.6,0.7-11.6
		C134.5,15.9,133.7,15.9,132.9,15.9z"/>
	<path class="st1" d="M151.9,44.1c5.9-11.9,7.7-17.8,7.7-27.3c0-2-0.1-3.1-0.5-4.6c2.1-0.2,4.4-0.8,6-1.3c0,5.5-9.6,30.6-12.8,37.6
		c-1.7,0.5-2.9,0.9-4.8,1.7c0.4-2.6,0.4-4.8,0.4-6.5c0-7.4-0.1-16.3-0.8-22c-0.6-4.7-1.6-7.4-2.4-9.3c1.8-0.4,4.1-1,5.7-1.6
		c1.1,5,1.9,13.8,1.9,23.4C152.2,41.8,151.8,44.1,151.9,44.1L151.9,44.1z"/>
	<path class="st1" d="M171.4,49.8c-2.4,0-5.8-4.6-5.8-19.3c0-6.5,0.3-10.3,1.4-12.8c0.6-1.3,1.2-2.1,2.1-3c3.4-3.1,5.5-4.4,8-4.4
		c4.7,0,6,2.3,6,8.1c0,12.5-1.3,21.3-4.6,25.5C175.5,47.8,173.2,49.8,171.4,49.8z M178.3,24.1c0-5.9-0.2-8.3-1.2-9.6
		c-0.8-1.1-2.2-1.4-3-1.4c-1.2,0-1.8,0.3-2.4,2.1c-0.9,2.9-1.2,8.7-1.2,15.5c0,11.8,1.7,14.1,4.6,14.1
		C177.3,44.9,178.3,38,178.3,24.1z"/>
</g>
<g>
	<g>
		<polygon class="st2" points="0.9,39 14.1,52 27.4,39 14.1,26 14.1,39 		"/>
		<polygon class="st2" points="14.1,26 27.4,39 40.6,26 27.4,13 27.4,26 		"/>
		<polygon class="st2" points="27.4,13 40.6,26 53.9,13 40.6,0 40.6,13 		"/>
	</g>
	<polygon class="st2" points="53.9,52 53.9,13 14.1,52 	"/>
</g>
<polyline class="st3" points="37.9,23.3 27.4,13 40.6,13 40.6,26 "/>
<polyline class="st3" points="51.1,10.3 40.6,0 53.9,0 53.9,13 "/>
<polyline class="st3" points="24.7,36.3 14.1,26 27.4,26 27.4,39 "/>
<polyline class="st3" points="11.4,49.3 0.9,39 14.1,39 14.1,52 "/>
<polyline class="st2" points="3.5,41.6 14.3,51.7 1.1,52 0.8,39 "/>
</svg>
